<svg width="80" height="80" viewBox="0 0 80 80" fill="none" xmlns="http://www.w3.org/2000/svg">
<g id="Add">
<path id="add" fill-rule="evenodd" clip-rule="evenodd" d="M55.0721 40C55.0721 38.367 53.7483 37.0433 52.1154 37.0433H42.9567V27.8846C42.9567 26.2517 41.633 24.9279 40 24.9279C38.367 24.9279 37.0433 26.2517 37.0433 27.8846V37.0433H27.8846C26.2517 37.0433 24.9279 38.367 24.9279 40C24.9279 41.633 26.2517 42.9567 27.8846 42.9567H37.0433V52.1154C37.0433 53.7483 38.367 55.0721 40 55.0721C41.633 55.0721 42.9567 53.7483 42.9567 52.1154V42.9567H52.1154C53.7483 42.9567 55.0721 41.633 55.0721 40ZM40 10C45.4808 10 50.5529 11.3702 55.2163 14.1106C59.7356 16.7067 63.2933 20.2644 65.8894 24.7837C68.6298 29.4471 70 34.5192 70 40C70 45.4808 68.6298 50.5529 65.8894 55.2163C63.2933 59.7356 59.7356 63.2933 55.2163 65.8894C50.5529 68.6298 45.4808 70 40 70C34.5192 70 29.4471 68.6298 24.7837 65.8894C20.2644 63.2452 16.7067 59.6635 14.1106 55.1442C11.3702 50.4807 10 45.4327 10 40C10 34.5673 11.3702 29.5193 14.1106 24.8558C16.7548 20.3365 20.3365 16.7548 24.8558 14.1106C29.5193 11.3702 34.5673 10 40 10Z" fill="url(#paint0_linear_302_177)"/>
</g>
<defs>
<linearGradient id="paint0_linear_302_177" x1="40" y1="10" x2="40" y2="70" gradientUnits="userSpaceOnUse">
<stop stop-color="#B26CD3"/>
<stop offset="1" stop-color="#4E5EE4"/>
</linearGradient>
</defs>
</svg>
