<svg width="24" height="25" viewBox="0 0 24 25" fill="none" xmlns="http://www.w3.org/2000/svg">
<g id="Icon/bellFilled">
<path id="bell" fill-rule="evenodd" clip-rule="evenodd" d="M17.988 15.9649L19.7973 17.6374C19.9264 17.7567 20 17.9256 20 18.1026C20 18.4505 19.7215 18.7325 19.3779 18.7325H4.62212C4.27853 18.7325 4 18.4505 4 18.1026C4 17.9256 4.07356 17.7567 4.20267 17.6374L6.01198 15.9649V11.3819C6.01198 9.93542 6.40319 8.6882 7.18563 7.64022C7.98404 6.56273 9.09381 5.86163 10.515 5.5369V4.89483C10.515 4.51107 10.6587 4.18266 10.9461 3.90959C11.2335 3.63653 11.5848 3.5 12 3.5C12.4152 3.5 12.7705 3.63653 13.0659 3.90959C13.3613 4.18266 13.509 4.51107 13.509 4.89483V5.5369C14.9142 5.86163 16.016 6.57011 16.8144 7.66236C17.5968 8.71034 17.988 9.95018 17.988 11.3819V15.9649ZM12 21.5C11.4411 21.5 10.9661 21.3229 10.5749 20.9686C10.3597 20.7738 10.2037 20.4049 10.1069 20.1123C10.035 19.8951 10.2011 19.6845 10.4273 19.6845H13.5708C13.7976 19.6845 13.9637 19.8961 13.8903 20.1134C13.7915 20.4058 13.6324 20.7741 13.4132 20.9686C13.014 21.3229 12.5429 21.5 12 21.5Z" fill="#C1C3C5"/>
</g>
</svg>
