<svg width="28" height="29" viewBox="0 0 28 29" fill="none" xmlns="http://www.w3.org/2000/svg">
<path id="circle logo icon" fill-rule="evenodd" clip-rule="evenodd" d="M14 28.5C21.732 28.5 28 22.232 28 14.5C28 6.76801 21.732 0.5 14 0.5C6.26801 0.5 0 6.76801 0 14.5C0 22.232 6.26801 28.5 14 28.5ZM10.0659 17.1662L20.2946 8.48615C20.2946 8.48615 21.3766 7.78617 22.3663 8.73417C23.356 9.68217 22.4957 10.9662 22.4957 10.9662L11.9351 19.9331C11.9138 19.9512 11.8927 19.9691 11.8719 19.9868C11.1289 20.6181 10.6685 21.0092 10.0397 21.0092C9.39331 21.0092 8.93953 20.6605 8.32154 19.9331C7.79987 19.4188 5.22162 16.3794 5.22162 16.3794C5.22162 16.3794 4.85739 15.2223 5.87429 14.4636C6.89118 13.7049 7.83226 14.6233 7.83226 14.6233L10.0659 17.1662Z" fill="#4E5EE4"/>
</svg>
