<svg width="24" height="25" viewBox="0 0 24 25" fill="none" xmlns="http://www.w3.org/2000/svg">
<g id="Icon/gear">
<path id="Gear" d="M9.86268 3.5L9.41375 5.77109C8.65903 6.05083 7.96597 6.44294 7.3587 6.93301L5.13911 6.18066L3 9.81934L4.77782 11.3381C4.70948 11.7505 4.67409 12.1327 4.67409 12.5C4.67409 12.8679 4.71054 13.2494 4.77782 13.6619V13.6637L3 15.1824L5.13911 18.8193L7.35692 18.0687C7.96424 18.5591 8.65887 18.949 9.41375 19.2289L9.86268 21.5H14.1373L14.5862 19.2289C15.3415 18.949 16.0337 18.5575 16.6413 18.067L18.8609 18.8193L20.9982 15.1824L19.2222 13.6619C19.2905 13.2495 19.3259 12.8673 19.3259 12.5C19.3259 12.1332 19.2903 11.7515 19.2222 11.3398V11.3381L21 9.81758L18.8609 6.18066L16.6431 6.93125C16.0358 6.44091 15.3411 6.05099 14.5862 5.77109L14.1373 3.5H9.86268ZM11.3722 5.3H12.6278L12.9837 7.1L13.9388 7.45508C14.5145 7.66832 15.0317 7.96108 15.4805 8.32344L16.2711 8.95977L18.031 8.36562L18.6588 9.43262L17.253 10.635L17.414 11.6246V11.6264C17.4699 11.9638 17.4944 12.2469 17.4944 12.5C17.4944 12.7531 17.4699 13.0361 17.414 13.3736L17.2512 14.3633L18.657 15.5656L18.0292 16.6344L16.2711 16.0385L15.4787 16.6766C15.0299 17.0389 14.5145 17.3317 13.9388 17.5449H13.937L12.9819 17.9L12.626 19.7H11.3722L11.0163 17.9L10.0612 17.5449C9.48551 17.3317 8.96829 17.0389 8.51948 16.6766L7.72893 16.0402L5.969 16.6344L5.34122 15.5674L6.74881 14.3633L6.58605 13.3771V13.3754C6.53086 13.0365 6.50556 12.7526 6.50556 12.5C6.50556 12.2469 6.53005 11.9639 6.58605 11.6264L6.74881 10.6367L5.34122 9.43437L5.969 8.36562L7.72893 8.96152L8.51948 8.32344C8.96829 7.96108 9.48551 7.66832 10.0612 7.45508L11.0163 7.1L11.3722 5.3ZM12 8.9C9.98856 8.9 8.33704 10.5231 8.33704 12.5C8.33704 14.4769 9.98856 16.1 12 16.1C14.0114 16.1 15.663 14.4769 15.663 12.5C15.663 10.5231 14.0114 8.9 12 8.9ZM12 10.7C13.0178 10.7 13.8315 11.4997 13.8315 12.5C13.8315 13.5003 13.0178 14.3 12 14.3C10.9822 14.3 10.1685 13.5003 10.1685 12.5C10.1685 11.4997 10.9822 10.7 12 10.7Z" fill="#C1C3C5"/>
</g>
</svg>
